<?xml version="1.0" encoding="utf-8"?>
<!-- Generator: Adobe Illustrator 23.0.3, SVG Export Plug-In . SVG Version: 6.00 Build 0)  -->
<svg version="1.1" id="Layer_1" xmlns="http://www.w3.org/2000/svg" xmlns:xlink="http://www.w3.org/1999/xlink" x="0px" y="0px"
	 viewBox="0 0 1758.25 595.28" style="enable-background:new 0 0 1758.25 595.28;" xml:space="preserve">
<style type="text/css">
	.st0{fill:url(#SVGID_1_);}
	.st1{fill:#003F1E;}
	.st2{fill:#009940;}
	.st3{fill:url(#SVGID_2_);}
	.st4{fill:#02803E;}
	.st5{fill:#016F3B;}
	.st6{fill:#029A41;}
	.st7{fill:url(#SVGID_3_);}
	.st8{fill:url(#SVGID_4_);}
	.st9{fill:url(#SVGID_5_);}
	.st10{fill:url(#SVGID_6_);}
	.st11{fill:url(#SVGID_7_);}
	.st12{fill:url(#SVGID_8_);}
	.st13{fill:url(#SVGID_9_);}
	.st14{fill:url(#SVGID_10_);}
</style>
<g>
	<g>
		<g>
			
				<linearGradient id="SVGID_1_" gradientUnits="userSpaceOnUse" x1="1073.2913" y1="153.8595" x2="1073.2913" y2="441.46" gradientTransform="matrix(1 0 0 -1 0 595.28)">
				<stop  offset="0" style="stop-color:#003F1E"/>
				<stop  offset="1" style="stop-color:#009940"/>
			</linearGradient>
			<path class="st0" d="M960.51,242.34c0-2.38-0.18-2.53-2.53-2.6c-1.03-0.04-2.1,0-3.13,0c-14.91,0-29.83,0-44.78,0
				c-15.38,0-30.75,0-46.09,0c-1.21,0-2.38-0.04-3.59,0.04c-0.85,0.04-1.32,0.57-1.35,1.46c-0.04,0.89-0.04,1.78-0.04,2.67
				c0,18.37,0,36.7,0,55.06c0,0.89,0,1.78,0.07,2.67c0.07,0.82,0.5,1.39,1.35,1.46c0.75,0.07,1.49,0.07,2.24,0.07
				c31.32,0,62.68,0,94,0c0.89,0,1.78-0.04,2.67-0.14c0.64-0.07,1.07-0.53,1.1-1.17c0.07-1.03,0.07-2.1,0.07-3.13
				c0-7.62,0-15.23,0-22.81C960.55,264.73,960.55,253.51,960.51,242.34z M951.29,391.83c0-4.63,0.04-9.25,0-13.88
				c-0.07-6.9,0.78-6.02-5.87-6.02c-32.39-0.04-64.78,0-97.13,0c-3.92,0-3.92-0.04-3.88-3.95c0-0.46,0.07-0.89,0.07-1.35
				c-0.07-5.8-0.14-11.64-0.21-17.44c0.07-0.75,0.25-1.46,0.25-2.21c0.14-15.87,0.25-31.78,0.36-47.66
				c0.04-6.37,0.11-12.78,0.07-19.15c0-2.95-0.14-5.94-0.21-8.9c0.07-1.17,0.21-2.38,0.21-3.56c0.04-12.67,0.07-25.31,0.11-37.98
				c0-3.56,0.04-7.15,0.07-10.71c0.04-1.82,0.32-2.1,2.03-2.17c1.17-0.04,2.38-0.04,3.56-0.04c29.19,0,58.41,0,87.59,0
				c1.35,0,2.67,0,4.02-0.04c1.03,0,1.71-0.46,1.67-1.57c-0.04-2.24,0.28-4.45-0.25-6.66c0.11-1.32,0.28-2.67,0.28-3.99
				c0-15.34,0-30.72,0-46.06c0-5.05,0.36-4.59-4.56-4.59c-55.77,0-111.51,0-167.29,0c-1.03,0-2.1,0.04-3.13,0.07
				c-0.93,0.04-1.32,0.61-1.39,1.42c-0.07,0.89-0.04,1.78-0.04,2.67c0,15.66,0,31.32,0,46.95c0,1.17,0.18,2.35,0.28,3.56
				c-0.11,1.03-0.25,2.06-0.25,3.1c-0.04,18.83-0.04,37.69-0.04,56.52c0,1.03,0.18,2.06,0.28,3.1c-0.07,1.17-0.25,2.35-0.25,3.52
				c-0.04,23.63-0.04,47.23-0.04,70.87c0,1.17,0.18,2.35,0.28,3.52c-0.07,0.89-0.25,1.74-0.25,2.63
				c-0.04,13.49-0.04,26.94-0.04,40.43c0,0.89,0.18,1.74,0.28,2.63c-0.11,1.32-0.25,2.67-0.28,3.99
				c-0.04,10.57-0.04,21.18-0.04,31.75c0,5.3-0.6,4.73,4.77,4.77c0.28,0,0.61,0,0.89,0c57.41,0,114.82,0,172.23,0
				c1.21,0,2.38,0.04,3.59,0c1.89-0.07,2.06-0.21,2.14-2.03c0.04-0.61,0-1.21,0-1.78c0-11.18,0-22.35-0.04-33.56
				c0-1.03-0.18-2.06-0.28-3.1C951.47,393.93,951.29,392.86,951.29,391.83z M1449.52,153.89c-22.96,0-45.91,0-68.87,0
				c-0.89,0-1.78-0.04-2.67,0.04c-1.46,0.07-1.71,0.36-1.78,1.96c-0.04,0.89-0.04,1.78-0.04,2.67c0,23.99,0,48.01,0,72
				c0,1.32,0.14,2.67,0.21,3.99c-0.07,1.17-0.18,2.35-0.18,3.56c-0.04,28.4-0.04,56.77-0.04,85.17c0,1.17,0.14,2.35,0.21,3.56
				c-0.36,5.8-0.18,11.64-0.89,17.4c-0.82,6.55-2.24,12.92-5.41,18.79c-3.88,7.19-9.75,11.92-17.65,14.06
				c-4.8,1.28-9.68,1.82-14.63,1.42c-4.77-0.39-9.47-1-14.17-2.06c-4.8-1.1-9.5-2.46-14.2-3.92c-0.89-0.28-1.6,0.14-1.57,0.96
				c0.04,3.56-0.46,7.15,0.25,10.68c-0.11,0.89-0.25,1.78-0.25,2.67c-0.04,14.91-0.04,29.83-0.04,44.78c0,0.75,0.04,1.49,0.04,2.24
				c0.04,0.85,0.5,1.35,1.28,1.6c0.57,0.18,1.14,0.39,1.71,0.5c8.86,1.99,17.83,3.63,26.87,4.48c11,1.07,22.03,1.39,33.07,0.28
				c11.03-1.1,21.82-3.31,32.1-7.47c20.82-8.44,35.77-22.78,43.85-43.92c0.53-1.35,1.35-2.71,1.21-4.27
				c0.25-0.36,0.57-0.71,0.68-1.14c1.96-6.87,3.27-13.85,3.92-21c0.68-7.72,0.46-15.45,0.57-23.17c0.07-4.31-0.11-8.61-0.18-12.92
				c0.11-3.56,0.28-7.12,0.32-10.68c0.11-23.35,0.18-46.66,0.21-70.01c0-3.84-0.11-7.72-0.18-11.57c0.07-0.61,0.21-1.17,0.21-1.78
				c0.18-24.88,0.32-49.76,0.46-74.67C1454.01,153.57,1454.26,153.89,1449.52,153.89z M1280.92,317.44c0-27.8,0-55.56-0.04-83.36
				c0-1.32-0.18-2.67-0.25-3.99c0.11-0.89,0.32-1.74,0.32-2.63c0-23.24,0-46.52,0-69.76c0-4.16-0.07-3.81-4.02-3.81
				c-23.24,0-46.52,0-69.76,0c-1.17,0-2.35,0-3.42,0c-0.93,1.82-0.57,3.49-0.57,5.09c-0.04,22.21-0.04,44.42-0.04,66.63
				c0,1.49-0.25,2.99,0.25,4.45c-0.07,1.17-0.21,2.35-0.21,3.56c-0.04,28.08-0.04,56.17-0.04,84.28c0,1.17,0.14,2.35,0.25,3.52
				c-0.07,1.03-0.21,2.06-0.21,3.1c-0.04,17.05-0.04,34.1-0.04,51.15c0,1.03,0.14,2.06,0.25,3.1c-0.07,1.49-0.21,2.95-0.21,4.45
				c-0.04,15.2-0.04,30.4-0.04,45.59c0,1.49-0.04,2.99,0,4.48c0.04,1.92,0.18,2.06,1.99,2.14c0.6,0.04,1.17,0,1.78,0
				c23.38,0,46.77,0,70.15,0c0.89,0,1.78,0,2.67-0.07c0.64-0.07,1.03-0.5,1.07-1.17c0.04-1.03,0.07-2.1,0.07-3.13
				c0-16.23,0-32.46-0.04-48.73c0-1.17-0.18-2.35-0.25-3.56c0.11-1.03,0.28-2.06,0.28-3.06c0-17.05,0-34.13-0.04-51.18
				c0-1.03-0.18-2.06-0.25-3.1C1281.13,320.11,1280.92,318.76,1280.92,317.44z M1664.5,373.21c0-0.25-0.32-0.5-0.46-0.71
				c-0.93-1.14-2.21-0.61-3.31-0.61c-33.07-0.04-66.1-0.04-99.16-0.04c-1.03,0-2.06,0.14-3.1,0.21c-1.03-1.1-0.71-2.49-0.75-3.77
				c-0.14-3.95,0.28-7.94-0.28-11.92c0.78-1.39,0.46-2.88,0.46-4.34c0.07-9.47,0.07-18.97,0.11-28.44c0-2.21-0.14-4.41-0.21-6.66
				c0.07-1.17,0.21-2.35,0.21-3.52c0.07-15.41,0.14-30.86,0.14-46.27c0-4.31-0.11-8.58-0.18-12.88c0.07-1.17,0.18-2.38,0.21-3.56
				c0.04-9.54,0.04-19.08,0.07-28.62c0.04-5.84-0.6-5.23,5.27-5.23c29.36,0,58.73,0,88.13,0c1.21,0,2.38,0.04,3.59,0
				c1.85-0.07,2.17-0.32,2.17-1.99c0-1.78-0.11-3.56-0.18-5.34c0.07-0.75,0.21-1.46,0.21-2.21c0-16.62,0-33.21,0-49.83
				c0-0.89-0.18-1.74-0.25-2.63c-0.53-0.04-1.03-0.18-1.32-0.71c-1.49-0.07-2.95-0.21-4.45-0.21c-54.99,0-109.98,0-164.97,0
				c-1.49,0-2.95,0.14-4.45,0.21c-0.28,0.25-0.53,0.46-0.82,0.68c-0.11,0.89-0.28,1.74-0.28,2.63c-0.04,16.48-0.04,32.92,0,49.4
				c0,0.89,0.14,1.78,0.21,2.63c-0.07,0.89-0.21,1.74-0.21,2.63c-0.04,13.17-0.04,26.34,0,39.51c0,0.89,0.14,1.74,0.21,2.63
				c-0.07,1.03-0.21,2.06-0.21,3.1c-0.04,18.83-0.04,37.69,0,56.52c0,1.03,0.14,2.06,0.25,3.1c-0.07,0.89-0.21,1.74-0.21,2.63
				c-0.04,11.39-0.04,22.78-0.04,34.13c0,0.89,0.14,1.74,0.25,2.63c-0.07,0.89-0.21,1.74-0.21,2.63
				c-0.04,11.39-0.04,22.74-0.04,34.13c0,0.89,0.14,1.74,0.25,2.63c-0.07,1.17-0.21,2.38-0.21,3.56
				c-0.04,10.61-0.04,21.18-0.04,31.78c0,4.77-0.5,4.27,4.34,4.27c58.34,0,116.67,0,175.01,0c0.89,0,1.78,0,2.67-0.04
				c1-0.04,1.71-0.43,1.71-1.57c0-0.75,0.04-1.49,0.04-2.24c0-11.03,0-22.07-0.04-33.14c0-0.89-0.14-1.78-0.21-2.67
				C1664.82,388.27,1664.54,380.76,1664.5,373.21z M1673.65,243.51c0-3.84,0.21-3.81-3.99-3.81c-15.52,0-31,0-46.52,0
				c-15.2,0-30.43,0-45.63,0c-1.35,0-2.67,0.04-4.02,0.07c-0.71,0.04-1.03,0.5-1.07,1.17c-0.04,0.89-0.07,1.78-0.07,2.67
				c0,18.47,0,36.98,0,55.45c0,0.89-0.04,1.78,0.04,2.67c0.07,0.85,0.6,1.32,1.49,1.35c0.89,0.04,1.78,0.04,2.67,0.04
				c31,0,62.04,0,93.04,0c0.89,0,1.78-0.04,2.67-0.07c0.89-0.07,1.32-0.61,1.35-1.46c0.04-0.75,0.04-1.49,0.04-2.24
				C1673.65,280.78,1673.65,262.16,1673.65,243.51z M1172.82,153.89c-65.92,0-131.8,0-197.72,0c-1.03,0-2.1,0-3.13,0.04
				c-0.85,0.04-1.35,0.53-1.39,1.39c-0.04,0.89-0.04,1.78-0.04,2.67c0,10.75,0,21.46,0,32.21c0,1.03,0.14,2.06,0.18,3.1
				c-0.32,7.47-0.32,14.95,0,22.42c0.25,0.28,0.46,0.53,0.71,0.82c1.6,0.5,3.24,0.25,4.88,0.25c18.12,0.04,36.27,0,54.39,0
				c4.56,0,4.31-0.28,4.34,4.38c0.04,5.34,0.14,10.68,0.18,16.02c-0.07,1.03-0.18,2.06-0.18,3.1c0,23.03-0.04,46.02,0,69.05
				c0,1.03,0.14,2.06,0.21,3.1c-0.07,0.89-0.18,1.78-0.18,2.67c-0.04,17.33-0.04,34.7-0.04,52.04c0,0.89,0.14,1.78,0.21,2.63
				c-0.07,0.89-0.18,1.78-0.18,2.67c-0.04,19.72-0.04,39.47-0.04,59.19c0,0.89,0.11,1.78,0.18,2.67c-0.14,0.61,0.04,0.93,0.71,0.82
				c0.89,0.07,1.78,0.25,2.67,0.25c23.38,0,46.77,0,70.15,0c4.06,0,3.77,0.11,3.77-3.99c0-19.5-0.04-39.05-0.04-58.55
				c0-1.03-0.18-2.06-0.25-3.1c0.11-1.03,0.28-2.06,0.28-3.06c0-17.05,0-34.06-0.04-51.11c0-1.03-0.18-2.06-0.25-3.1
				c0.53-1.14,0.32-2.35,0.32-3.52c0-22.78,0-45.52-0.04-68.3c0-1.17,0.21-2.38-0.28-3.52c0.11-0.75,0.28-1.46,0.28-2.21
				c0.04-4.48,0.04-8.97,0-13.42c0-5.34-0.21-4.7,4.91-4.7c18.05,0,36.13,0,54.17,0c1.21,0,2.38,0.04,3.59,0
				c1.85-0.07,2.17-0.32,2.17-1.99c-0.04-7.15-0.11-14.31-0.18-21.46c0.07-1.35,0.18-2.67,0.18-4.02c0-10.29,0-20.57,0-30.86
				C1177.38,153.5,1177.81,153.89,1172.82,153.89z M734,372.68c0.11-11.1,0-22.25-0.18-33.35c0.07-1.03,0.21-2.06,0.21-3.1
				c0-23.03,0-46.02-0.04-69.05c0-1.03-0.11-2.06-0.18-3.1c0.07-0.89,0.18-1.78,0.18-2.63c0-16.16,0-32.28,0-48.44
				c0-0.89-0.11-1.78-0.18-2.63c0.07-1.03,0.18-2.06,0.18-3.1c0-16.41,0-32.78,0-49.19c0-4.34,0.28-4.2-4.06-4.2
				c-23.24,0-46.48,0-69.73,0c-0.89,0-1.78,0-2.67,0.07c-0.89,0.04-1.28,0.61-1.32,1.42c-0.04,0.89-0.04,1.78-0.04,2.67
				c0,16.41,0,32.78,0,49.19c0,1.03,0.14,2.06,0.18,3.1c-0.07,1.49-0.18,2.99-0.18,4.45c-0.04,4.91,0,9.86-0.04,14.77
				c0,0.68,0.32,1.49-0.82,2.1c-1-0.93-2.06-1.89-3.13-2.88c-4.98-4.73-9.89-9.5-14.91-14.2c-2.06-1.92-4.31-3.67-6.44-5.52
				c-1.07-1.03-2.06-2.14-3.2-3.1c-4.45-3.74-8.9-7.51-13.45-11.1c-19.43-15.45-40.18-28.83-62.68-39.37
				c-2.35-1.1-4.66-1.67-7.26-1.67c-22.21,0.07-44.42,0.04-66.63,0.04c-1.03,0-2.1,0.04-3.13,0.04c-0.89,0.04-1.35,0.53-1.42,1.39
				c-0.07,1.03-0.07,2.1-0.07,3.13c0,15.95-0.04,31.89,0,47.84c0,1.32,0.18,2.67,0.28,3.99c-0.11,1.03-0.28,2.06-0.28,3.06
				c-0.04,15.91-0.04,31.82-0.04,47.69c0,1.03-0.18,2.1,0.32,3.06c-0.11,1.17-0.25,2.35-0.25,3.52C473,288.79,473,310,473,331.21
				c0,1.17,0.18,2.35,0.28,3.52c-0.11,0.89-0.25,1.74-0.25,2.63C473,350.86,473,364.32,473,377.8c0,0.89,0.18,1.74,0.28,2.63
				c-0.11,1.49-0.25,2.95-0.25,4.45c-0.04,15.2-0.04,30.4-0.04,45.56c0,0.89,0,1.78,0,2.67c0.07,1.85,0.28,2.1,1.99,2.17
				c0.89,0.04,1.78,0,2.67,0c22.64,0,45.27,0,67.91,0c1.32,0,2.67-0.14,3.99-0.25c0.68,0.11,0.85-0.21,0.71-0.82
				c0.07-0.89,0.18-1.78,0.18-2.63c0-16.16,0-32.32-0.04-48.48c0-0.89-0.11-1.78-0.18-2.63c0.36-15.23,0.28-30.47,0-45.7
				c0.07-1.03,0.21-2.06,0.21-3.1c0-21.53,0-43.03,0-64.57c0-1.03-0.11-2.06-0.18-3.1c0.11-5.27,0.21-10.54,0.36-15.73
				c1.49-0.28,2.17,0.64,3.03,1.17c7.08,4.63,13.92,9.54,20.72,14.59c0.93,0.71,1.74,1.64,2.95,1.92c0.64,0.61,1.25,1.25,1.92,1.82
				c26.45,20.54,50.15,43.85,71.4,69.69c1.32,1.6,2.74,3.13,4.09,4.7c1.25,1.6,1.49,3.42,1.49,5.41c-0.04,4.2-0.04,8.36-0.04,12.56
				l0,0v0.25c0,7.01,0,14.02,0,21.07v0.04v34.95l0,0c0,5.23,0,10.43,0,15.66c0,0.75,0.11,1.46,0.14,2.21
				c-0.14,0.61,0.07,0.93,0.71,0.82c0.89,0.07,1.78,0.21,2.67,0.21c23.53,0,47.02,0,70.54,0c0.89,0,1.78-0.04,2.67-0.11
				c0.68-0.07,1.07-0.5,1.1-1.17c0.04-0.89,0.04-1.78,0.04-2.67c0-4.98,0-9.97,0-14.95l0,0v-43.78H734z"/>
		</g>
	</g>
	<g>
		<path class="st1" d="M234.56,367.26c-0.51,0.67-0.83,1.45-1.16,2.21c-1.17,2.69-2.58,5.26-3.84,7.9c-0.18,0.37-0.33,0.76-0.5,1.14
			c-1.58,3.24-3.17,6.47-4.74,9.71c-1.79,3.69-3.58,7.39-5.37,11.08c-0.16,0.34-0.35,0.66-0.53,1c-0.39-0.3-0.44-0.74-0.59-1.11
			c-1.61-4-3.2-8.01-4.8-12.02c-0.11-0.27-0.21-0.55-0.32-0.82c-0.09-0.23-0.27-0.32-0.5-0.22c-0.27,0.11-0.53,0.26-0.79,0.39
			c-3.95,1.9-8.06,3.31-12.38,4.02c-3.19,0.53-6.4,0.72-9.65,0.44c-10.76-0.93-19.61-5.66-26.82-13.55
			c-5.7-6.24-9.41-13.55-10.92-21.86c-2.22-12.25,0.58-23.29,8.48-32.96c3.78-4.63,8.39-8.29,13.54-11.31
			c0.14-0.08,0.26-0.22,0.52-0.11c-0.12,0.31-0.39,0.47-0.61,0.67c-2.69,2.48-5.16,5.15-7.33,8.1c-2.75,3.74-4.93,7.78-6.21,12.27
			c-0.67,2.35-1.11,4.75-1.1,7.18c0.04,9.38,4.21,16.36,12.38,20.95c1.72,0.97,3.56,1.67,5.46,2.21c0.2,0.06,0.41,0.05,0.61,0.07
			c0.47,0.32,1.03,0.28,1.55,0.42c1.28,0.33,2.6,0.54,3.91,0.61c1.74,0.1,3.48,0.02,5.22,0.01c0.59-0.02,1.18,0.02,1.75-0.06
			c1.49-0.2,2.99-0.41,4.47-0.7c2.72-0.53,5.36-1.35,7.94-2.35c0.47-0.18,0.52-0.29,0.35-0.75c-0.1-0.28-0.22-0.55-0.32-0.82
			c-1.91-4.96-3.82-9.93-5.73-14.89c-0.07-0.17-0.24-0.36,0.07-0.57c13.08,5.85,26.19,11.71,39.31,17.57
			c0.34,0.15,0.68,0.32,1.02,0.48c0.04,0.02,0.07,0.05,0.09,0.08c0.03,0.03,0.04,0.07,0.08,0.15c-0.18,0.39-0.37,0.8-0.56,1.21
			C235.89,364.46,235.22,365.86,234.56,367.26z"/>
		<path class="st1" d="M285.69,249.46c-4.75-1.6-9.49-3.19-14.24-4.79c-4.7-1.59-9.41-3.19-14.11-4.79
			c-0.99-0.34-1.97-0.68-2.95-1.04c-0.32-0.12-0.63-0.21-0.97-0.19c-0.18-0.1-0.35-0.22-0.54-0.29c-1.18-0.41-2.36-0.82-3.54-1.22
			c-1.81-0.61-3.63-1.22-5.44-1.84c-0.46-0.16-0.49-0.24-0.31-0.74c0.68-1.83,1.38-3.66,2.06-5.5c0.14-0.38,0.38-0.75,0.3-1.2
			c0.26-0.17,0.34-0.47,0.44-0.73c1.01-2.68,2.02-5.35,3.01-8.04c0.29-0.77,0.53-1.56,0.8-2.34c0.68-1.76,1.37-3.51,2.03-5.27
			c1.93-5.13,3.85-10.27,5.78-15.4c0.12-0.31,0.23-0.63,0.37-0.93c0.05-0.11,0.22-0.14,0.3-0.02c0.2,0.32,0.38,0.65,0.55,0.98
			c1.95,3.8,3.89,7.61,5.83,11.41c0.17,0.33,0.36,0.66,0.56,1.03c0.4-0.04,0.68-0.3,0.98-0.49c3.82-2.3,7.86-4.11,12.18-5.25
			c4.71-1.24,9.5-1.65,14.33-1.09c8.05,0.93,15.16,4.1,21.37,9.26c7.6,6.34,12.74,14.29,15.06,23.94c2.87,11.95,0.6,22.94-6.5,32.93
			c-3.16,4.45-7.09,8.15-11.49,11.35c-0.13,0.1-0.29,0.15-0.44,0.22c0.02-0.08,0.01-0.16-0.02-0.24c0.26-0.32,0.51-0.66,0.79-0.97
			c3.02-3.45,5.68-7.16,7.74-11.27c1.66-3.32,2.88-6.78,3.47-10.45c0.8-4.96,0.39-9.8-1.7-14.4c-2.72-6.01-7.35-9.99-13.48-12.27
			c-3.54-1.32-7.22-1.84-10.98-1.76c-5.09,0.1-9.96,1.25-14.67,3.14c-1.36,0.54-2.68,1.18-4.02,1.79c-0.4,0.18-0.44,0.31-0.27,0.68
			c0.27,0.57,0.55,1.13,0.83,1.69c2.18,4.39,4.37,8.77,6.54,13.17C285.5,248.82,285.75,249.09,285.69,249.46z"/>
		<g>
			<path class="st2" d="M285.69,249.46c1.59,1.67,3.17,3.35,4.77,5.01c5.52,5.74,11.05,11.48,16.58,17.21
				c0.17,0.18,0.34,0.37,0.52,0.54c0.19,0.19,0.28,0.41,0.27,0.68c-0.01,0.29,0,0.59,0,0.88c0,34.43,0,68.86,0,103.29
				c0,1.6,0.19,1.44-1.51,1.44c-25.16,0-50.32,0-75.49,0c-0.59,0-1.17,0-1.76,0.01c0.16-0.38,0.32-0.77,0.5-1.14
				c1.26-2.64,2.66-5.22,3.84-7.9c0.33-0.76,0.65-1.54,1.16-2.21c0.49,0.14,1,0.08,1.5,0.08c19.84,0,39.67,0,59.51,0
				c1.78,0,1.59,0.21,1.59-1.63c0-30.4,0-60.81,0-91.21c0-1.95,0.24-1.69-1.64-1.69c-13.5-0.01-27.01,0-40.51,0
				c-0.38,0-0.75,0-1.13-0.01c-0.3,0-0.47-0.16-0.49-0.45c-0.02-0.38-0.02-0.75-0.02-1.13c0-10.4,0-20.8,0-31.2
				c0-0.46,0.03-0.92,0.05-1.38c0.34-0.02,0.66,0.08,0.97,0.19c0.98,0.36,1.96,0.71,2.95,1.04c4.7,1.6,9.4,3.2,14.11,4.79
				C276.2,246.27,280.94,247.86,285.69,249.46z"/>
			<path class="st2" d="M250.19,216.75c-0.27,0.78-0.51,1.57-0.8,2.34c-1,2.68-2,5.36-3.01,8.04c-0.1,0.27-0.18,0.56-0.44,0.73
				c-0.46,0.01-0.92,0.02-1.38,0.02c-18.29,0-36.57,0-54.86,0c-1.9,0-1.63-0.25-1.64,1.69c0,44.2,0,88.41,0,132.61
				c0,0.5,0,1.01,0.01,1.51c-1.74,0-3.49,0.08-5.22-0.01c-1.31-0.08-2.63-0.28-3.91-0.61c-0.52-0.13-1.08-0.09-1.55-0.42
				c0-0.59-0.01-1.17-0.01-1.76c0-47.48,0-94.96,0-142.43c0-0.46,0.01-0.92,0.03-1.38c0.01-0.19,0.14-0.31,0.32-0.32
				c0.33-0.02,0.67-0.02,1.01-0.02c3.86,0,7.72,0,11.58,0c19.63,0,39.26,0,58.89,0C249.52,216.74,249.86,216.75,250.19,216.75z"/>
		</g>
		
			<linearGradient id="SVGID_2_" gradientUnits="userSpaceOnUse" x1="345.4982" y1="254.82" x2="345.4982" y2="441.43" gradientTransform="matrix(1 0 0 -1 0 595.28)">
			<stop  offset="0" style="stop-color:#003F1E"/>
			<stop  offset="1" style="stop-color:#009940"/>
		</linearGradient>
		<path class="st3" d="M384.15,317.4c-0.01-0.08,0-0.17,0-0.25c0-5.28,0-10.56-0.01-15.84c0-0.33-0.04-0.67-0.05-1
			c0.01-0.58,0.04-1.17,0.04-1.75c-0.01-9.07-0.02-18.13-0.03-27.2c0-0.42-0.03-0.83-0.05-1.25c0.02-0.42,0.06-0.83,0.06-1.25
			c0-3.01-0.02-6.03-0.02-9.04c-0.01-11.01-0.02-22.01-0.03-33.02c0-1.38,0.01-2.76-0.01-4.14c-0.01-0.71-0.07-1.42-0.1-2.12
			c0.15-0.45,0.08-0.91,0.08-1.37c-0.02-7.99-0.04-15.98-0.06-23.97c-0.01-2.8,0-5.61-0.01-8.41c0-0.42-0.05-0.83-0.07-1.25
			c0.03-0.29,0.08-0.58,0.08-0.87c0-1-0.04-2.01-0.04-3.01c-0.01-8.78-0.02-17.56-0.04-26.34c0-0.41,0.06-0.84-0.08-1.24
			c-0.07-0.06-0.14-0.12-0.21-0.18c-1.61-0.02-3.23-0.05-4.84-0.05c-0.66,0-1.32,0.04-1.98,0.07c-0.33-0.02-0.67-0.05-1-0.05
			c-8.47,0.02-16.93,0.04-25.4,0.06c-4.4,0.01-8.8,0.04-13.2,0.05c-7.8,0.02-15.59,0.03-23.39,0.04c-0.29,0-0.59-0.01-0.88,0
			c-0.16,0.01-0.33,0.05-0.49,0.07c-1.8-0.01-3.6-0.02-5.4-0.03c-0.06,0-0.12,0.08-0.19,0.12c-0.01,0.29,0.25,0.41,0.41,0.58
			c6.96,6.97,13.93,13.93,20.89,20.91c0.41,0.42,0.84,0.6,1.43,0.6c4.69,0.03,9.39,0.11,14.08,0.15c5.49,0.04,10.98,0.06,16.47,0.1
			c0.25,0,0.5,0.01,0.75,0.03c0.19,0.02,0.3,0.15,0.31,0.33c0.02,0.33,0.03,0.67,0.03,1c0,2.14,0,4.28,0,6.41
			c0,0.42,0.04,0.83,0.05,1.25c-0.02,0.42-0.05,0.83-0.05,1.25c0,1.8,0.01,3.6,0.02,5.39c0.01,9.03,0.01,18.06,0.03,27.09
			c0,0.42,0.04,0.83,0.06,1.25c-0.13,1.71-0.04,3.43-0.03,5.14c0.02,5.73,0.04,11.47,0.05,17.2c0.02,8.62,0.03,17.24,0.04,25.86
			c0,0.29-0.01,0.59,0,0.88c0.01,0.17,0.04,0.33,0.07,0.49c-0.02,0.42-0.06,0.83-0.06,1.25c0,2.88,0.02,5.77,0.02,8.65
			c0.01,6.39,0.01,12.79,0.02,19.18c0,0.37,0.04,0.75,0.06,1.12c-0.02,0.42-0.05,0.83-0.05,1.25c0,2.97,0.01,5.94,0.02,8.91
			c0.01,9.54,0.01,19.07,0.02,28.61c0,0.42,0.03,0.83,0.05,1.25c0.09,0.02,0.14,0.07,0.17,0.15c0.36-0.08,0.53-0.4,0.76-0.63
			c5.94-5.91,11.88-11.83,17.82-17.75c1.1-1.09,2.19-2.2,3.31-3.27C384.02,318.42,384.23,317.98,384.15,317.4z"/>
		<path class="st4" d="M311.09,279.19c0.04,0.08,0.04,0.16,0.02,0.24c-0.03,0.24-0.26,0.26-0.4,0.38c-0.02,0.02-0.08,0.02-0.11,0.01
			c-0.11-0.04-0.09-0.08-0.01-0.17C310.75,279.48,310.84,279.25,311.09,279.19z"/>
		<path class="st5" d="M262,154.08c-0.09,0-0.15-0.05-0.17-0.14C261.96,153.89,261.99,153.97,262,154.08z"/>
		<path class="st6" d="M383.82,154.08c-0.07-0.06-0.14-0.12-0.21-0.18C383.77,153.86,383.85,153.91,383.82,154.08z"/>
		<g>
			
				<linearGradient id="SVGID_3_" gradientUnits="userSpaceOnUse" x1="295.942" y1="266.4914" x2="443.5401" y2="266.4914" gradientTransform="matrix(1 0 0 -1 0 595.28)">
				<stop  offset="0" style="stop-color:#003F1E"/>
				<stop  offset="0.2584" style="stop-color:#004520"/>
				<stop  offset="0.5929" style="stop-color:#005526"/>
				<stop  offset="0.9679" style="stop-color:#006F30"/>
				<stop  offset="1" style="stop-color:#007231"/>
			</linearGradient>
			<path class="st7" d="M443.48,297.55c-0.11-0.13-0.22-0.25-0.34-0.37c-4.55-4.52-9.1-9.04-13.65-13.57
				c-6.54-6.51-13.08-13.01-19.61-19.52c-5.94-5.92-11.88-11.84-17.82-17.76c-0.86-0.86-1.73-1.71-2.6-2.56
				c-0.13-0.13-0.24-0.36-0.57-0.24c-0.01,0.43-0.03,0.87-0.03,1.32c0,7.17,0,14.34,0,21.51c0,2.47,0.01,4.95-0.01,7.42
				c-0.01,0.58,0.14,1.02,0.57,1.44c1.38,1.35,2.72,2.74,4.07,4.11c5.09,5.17,10.18,10.33,15.27,15.5c0.91,0.92,1.81,1.86,2.71,2.77
				c-0.17,0.47-0.53,0.71-0.82,1c-2.18,2.2-4.37,4.4-6.56,6.6c-5.8,5.82-11.6,11.65-17.4,17.47c-5.39,5.41-10.77,10.81-16.16,16.22
				c-7.1,7.13-14.21,14.25-21.32,21.38c-0.29,0.29-0.64,0.54-0.83,0.93c-0.22,0.19-0.46,0.36-0.66,0.56c-1.01,1.01-2,2.03-3.01,3.04
				c-4.92,4.93-9.84,9.85-14.75,14.78c-0.23,0.23-0.53,0.42-0.65,0.75c-0.1,0.11-0.2,0.21-0.3,0.32c-0.12,0-0.18,0.07-0.19,0.19
				c-0.42,0.29-0.78,0.65-1.07,1.07c-0.12,0-0.18,0.07-0.19,0.19l-0.06,0.06c-0.12,0.01-0.19,0.07-0.19,0.19l-0.06,0.06
				c-0.12,0.01-0.19,0.07-0.19,0.19l-0.06,0.06c-0.12,0.01-0.19,0.07-0.19,0.19l-0.06,0.06c-0.12,0.01-0.19,0.07-0.19,0.19
				l-0.06,0.06c-0.12,0.01-0.19,0.07-0.19,0.19l-0.06,0.06c-0.12,0.01-0.19,0.07-0.19,0.19l-0.06,0.06
				c-0.12,0.01-0.19,0.07-0.19,0.19l-0.06,0.06c-0.12,0.01-0.19,0.07-0.19,0.19l-0.06,0.06c-0.12,0.01-0.19,0.07-0.19,0.19
				l-0.06,0.06c-0.12,0.01-0.19,0.07-0.19,0.19l-0.06,0.06c-0.12,0.01-0.19,0.07-0.19,0.19l-0.06,0.06
				c-0.12,0.01-0.19,0.07-0.19,0.19l-0.06,0.06c-0.12,0.01-0.19,0.07-0.19,0.19l-0.06,0.06c-0.12,0.01-0.19,0.07-0.19,0.19
				l-0.06,0.06c-0.12,0.01-0.19,0.07-0.19,0.19l-0.06,0.06c-0.12,0.01-0.19,0.07-0.19,0.19l-0.06,0.06
				c-0.12,0.01-0.18,0.07-0.19,0.19c-0.16,0.13-0.33,0.25-0.48,0.39c-2.23,2.24-4.46,4.48-6.69,6.72c-0.11,0.12-0.2,0.26-0.29,0.39
				l0,0c-0.25,0.22-0.51,0.42-0.75,0.66c-1.16,1.16-2.3,2.32-3.46,3.48c-4.98,4.99-9.95,9.97-14.93,14.96
				c-0.18,0.18-0.36,0.35-0.53,0.54c-0.13,0.14-0.35,0.26-0.17,0.55c0.18,0,0.39,0,0.6,0c10.02,0.01,20.04,0.03,30.06,0.04
				c0.21,0,0.42-0.01,0.63,0c0.27,0.01,0.49-0.08,0.67-0.27c1.27-1.33,2.67-2.54,3.84-3.97c0.19-0.16,0.4-0.3,0.57-0.48
				c4.44-4.45,8.87-8.9,13.31-13.35c0.15-0.15,0.27-0.32,0.4-0.48c0.31-0.28,0.63-0.54,0.93-0.84c2.19-2.19,4.38-4.4,6.56-6.59
				c3.25-3.27,6.51-6.53,9.76-9.8c0.23-0.23,0.44-0.5,0.65-0.75c0.39-0.19,0.64-0.53,0.93-0.83c5.48-5.49,10.95-10.99,16.42-16.48
				c5.98-6,11.96-12,17.93-18c6.54-6.56,13.08-13.13,19.62-19.69c5.89-5.91,11.79-11.81,17.68-17.72c2.1-2.11,4.2-4.22,6.3-6.33
				c0.21-0.21,0.41-0.42,0.6-0.64C443.54,297.8,443.58,297.66,443.48,297.55z"/>
			
				<linearGradient id="SVGID_4_" gradientUnits="userSpaceOnUse" x1="361.5268" y1="254.8573" x2="361.6996" y2="254.8573" gradientTransform="matrix(1 0 0 -1 0 595.28)">
				<stop  offset="0" style="stop-color:#003F1E"/>
				<stop  offset="0.2584" style="stop-color:#004520"/>
				<stop  offset="0.5929" style="stop-color:#005526"/>
				<stop  offset="0.9679" style="stop-color:#006F30"/>
				<stop  offset="1" style="stop-color:#007231"/>
			</linearGradient>
			<path class="st8" d="M361.7,340.47c-0.03-0.08-0.09-0.13-0.17-0.15C361.53,340.56,361.53,340.56,361.7,340.47z"/>
		</g>
		
			<linearGradient id="SVGID_5_" gradientUnits="userSpaceOnUse" x1="124.87" y1="168.737" x2="295.5562" y2="168.737" gradientTransform="matrix(1 0 0 -1 0 595.28)">
			<stop  offset="0" style="stop-color:#003F1E"/>
			<stop  offset="0.2584" style="stop-color:#004520"/>
			<stop  offset="0.5929" style="stop-color:#005526"/>
			<stop  offset="0.9679" style="stop-color:#006F30"/>
			<stop  offset="1" style="stop-color:#007231"/>
		</linearGradient>
		<path class="st9" d="M295.46,445.61c-0.19,0-0.43,0-0.67,0c-9.77,0-19.54,0.01-29.31-0.02c-0.79,0-1.33,0.26-1.87,0.8
			c-7.12,7.05-14.27,14.08-21.4,21.11c-0.21,0.21-0.42,0.41-0.64,0.61c-0.14,0.13-0.31,0.12-0.45-0.01
			c-0.19-0.17-0.37-0.35-0.54-0.52c-3.69-3.66-7.38-7.33-11.06-11c-5.29-5.27-10.58-10.53-15.86-15.8
			c-5.76-5.74-11.53-11.48-17.29-17.23c-5.08-5.06-10.15-10.13-15.23-15.2c-1.75-1.75-3.51-3.49-5.27-5.23
			c-0.21-0.2-0.44-0.38-0.66-0.57c-0.96-1.1-1.99-2.13-3.09-3.09c0-0.11-0.04-0.17-0.16-0.16c-0.14-0.16-0.27-0.32-0.42-0.47
			c-5.36-5.36-10.73-10.72-16.1-16.07c-0.59-0.59-1.22-1.13-1.83-1.7c-0.22-0.25-0.42-0.51-0.65-0.75
			c-3.82-3.82-7.65-7.64-11.47-11.45c-5.19-5.18-10.38-10.35-15.58-15.52c-0.21-0.21-0.42-0.41-0.64-0.6
			c-0.05-0.04-0.15-0.02-0.23-0.01c-0.1,0.02-0.12,0.09-0.11,0.19c0.01,0.17,0,0.33,0,0.5c-0.01,10.01-0.02,20.02-0.06,30.04
			c0,0.69,0.2,1.17,0.69,1.64c3.72,3.68,7.43,7.38,11.14,11.08c0.18,0.17,0.38,0.32,0.57,0.48c0.28,0.31,0.54,0.63,0.83,0.93
			c3.73,3.72,7.46,7.44,11.19,11.16c3.05,3.04,6.1,6.08,9.16,9.11c0.26,0.26,0.56,0.5,0.84,0.74c0.28,0.31,0.54,0.64,0.83,0.93
			c4.6,4.59,9.21,9.17,13.82,13.76c6.42,6.39,12.83,12.79,19.24,19.18c6.71,6.69,13.42,13.38,20.13,20.07
			c5.85,5.83,11.69,11.67,17.54,17.51c3.18,3.17,6.35,6.34,9.54,9.5c0.29,0.29,0.53,0.65,0.98,0.82c0.21-0.19,0.43-0.38,0.63-0.58
			c0.77-0.77,1.53-1.56,2.3-2.33c4.23-4.25,8.46-8.5,12.69-12.75c6.45-6.48,12.9-12.96,19.35-19.43
			c5.95-5.97,11.9-11.94,17.85-17.91c0.41-0.42,0.82-0.84,1.22-1.27C295.5,445.99,295.66,445.87,295.46,445.61z"/>
		
			<linearGradient id="SVGID_6_" gradientUnits="userSpaceOnUse" x1="111.905" y1="414.1744" x2="111.905" y2="243.4855" gradientTransform="matrix(1 0 0 -1 0 595.28)">
			<stop  offset="0" style="stop-color:#003F1E"/>
			<stop  offset="0.2584" style="stop-color:#004520"/>
			<stop  offset="0.5929" style="stop-color:#005526"/>
			<stop  offset="0.9679" style="stop-color:#006F30"/>
			<stop  offset="1" style="stop-color:#007231"/>
		</linearGradient>
		<path class="st10" d="M182.06,181.16c-5.15-0.02-10.31-0.04-15.46-0.05c-3.69-0.01-7.37,0-11.06,0c-1.62,0-1.62,0-2.68,1.17
			c-0.05,0.06-0.08,0.14-0.13,0.21c0.1,0.03,0.21,0.05,0.31,0.08c-0.1-0.03-0.21-0.04-0.31-0.08c-0.13,0.1-0.28,0.18-0.39,0.3
			c-2.33,2.33-4.66,4.66-6.99,6.99c-0.12,0.12-0.21,0.26-0.31,0.39c-0.22,0.19-0.45,0.36-0.66,0.57c-3.06,3.07-6.12,6.14-9.17,9.21
			c-0.17,0.18-0.32,0.38-0.49,0.57c-0.13,0.1-0.27,0.19-0.39,0.31c-5.4,5.42-10.8,10.83-16.2,16.26c-0.29,0.29-0.55,0.62-0.83,0.93
			l0,0c-0.39,0.19-0.64,0.53-0.93,0.83c-4.09,4.1-8.16,8.21-12.25,12.31c-6.3,6.33-12.61,12.65-18.92,18.98
			c-6.51,6.54-13.02,13.07-19.54,19.61C59.8,275.63,53.9,281.53,48,287.44c-3.11,3.12-6.22,6.23-9.32,9.36
			c-0.22,0.22-0.56,0.38-0.57,0.82c0.28,0.29,0.56,0.59,0.86,0.89c4.01,3.99,8.03,7.99,12.04,11.98
			c6.54,6.51,13.08,13.01,19.62,19.52c6,5.98,12,11.96,18,17.94c1.13,1.12,2.26,2.24,3.39,3.37c0.15,0.15,0.29,0.3,0.46,0.43
			c0.05,0.04,0.16,0.06,0.22,0.03c0.06-0.02,0.13-0.11,0.13-0.18c0.02-0.38,0.02-0.75,0.02-1.13c0-7.47,0-14.93,0-22.4
			c0-2.14-0.02-4.28,0.01-6.42c0.01-0.67-0.15-1.18-0.65-1.67c-1.94-1.91-3.83-3.88-5.74-5.82c-4.39-4.45-8.77-8.9-13.16-13.35
			c-0.88-0.9-1.76-1.8-2.64-2.7c-0.55-0.57-0.54-0.57-0.04-1.09c0.47-0.48,0.94-0.96,1.41-1.44c5.53-5.56,11.07-11.11,16.6-16.67
			c5.62-5.65,11.24-11.29,16.87-16.94c5.09-5.11,10.19-10.21,15.29-15.32c4.12-4.13,8.23-8.26,12.34-12.39
			c0.2-0.2,0.37-0.44,0.56-0.66c0.31-0.28,0.63-0.54,0.92-0.83c2.6-2.6,5.2-5.21,7.8-7.82c3.01-3.02,6.03-6.04,9.04-9.07
			c0.2-0.2,0.38-0.44,0.56-0.66c0.15-0.05,0.24-0.14,0.29-0.29c0.13-0.01,0.21-0.08,0.22-0.22l0.03-0.03
			c0.14-0.01,0.21-0.08,0.22-0.22l0.03-0.03c0.14-0.01,0.21-0.08,0.22-0.22l0.03-0.03c0.14-0.01,0.21-0.08,0.22-0.22l0.03-0.03
			c0.14-0.01,0.21-0.08,0.22-0.22l0.03-0.03c0.14-0.01,0.21-0.08,0.22-0.22l0.03-0.03c0.14-0.01,0.21-0.08,0.22-0.22l0.03-0.03
			c0.13-0.01,0.21-0.08,0.22-0.22c0.25-0.12,0.43-0.3,0.54-0.54c0.13-0.01,0.21-0.08,0.21-0.22l0.04-0.05
			c0.12-0.02,0.19-0.08,0.2-0.21l0.05-0.05c0.12-0.01,0.19-0.08,0.2-0.2l0.05-0.05c0.12-0.01,0.19-0.07,0.2-0.2l0.05-0.05
			c0.12-0.01,0.19-0.07,0.2-0.2l0.05-0.05c0.12-0.01,0.19-0.07,0.2-0.2l0.05-0.05c0.12-0.01,0.19-0.07,0.2-0.2l0.05-0.05
			c0.12-0.01,0.19-0.07,0.2-0.2l0.05-0.05c0.12-0.01,0.19-0.08,0.2-0.2l0.05-0.05c0.12-0.01,0.19-0.08,0.2-0.2l0.05-0.05
			c0.12-0.01,0.19-0.08,0.2-0.2l0.05-0.05c0.12-0.01,0.19-0.08,0.2-0.2l0.05-0.05c0.12-0.01,0.19-0.08,0.2-0.2l0.05-0.05
			c0.12-0.01,0.19-0.08,0.2-0.2l0.05-0.05c0.12-0.01,0.19-0.08,0.2-0.2l0.05-0.05c0.12-0.01,0.19-0.08,0.2-0.2l0.05-0.05
			c0.12-0.01,0.19-0.08,0.2-0.2l0.05-0.05c0.12-0.01,0.19-0.08,0.2-0.2l0.05-0.05c0.12-0.01,0.19-0.08,0.2-0.2l0.05-0.05
			c0.12-0.01,0.19-0.08,0.2-0.2l0.05-0.05c0.12-0.01,0.19-0.08,0.2-0.2l0.05-0.05c0.12-0.01,0.19-0.08,0.2-0.2l0.05-0.05
			c0.12-0.01,0.19-0.08,0.2-0.2l0.05-0.05c0.12-0.01,0.19-0.08,0.2-0.2l0.05-0.05c0.12-0.01,0.19-0.08,0.2-0.2l0.05-0.05
			c0.13-0.02,0.2-0.09,0.21-0.21l0.04-0.04c0.13-0.01,0.19-0.07,0.2-0.2l0.05-0.05c0.13-0.01,0.19-0.07,0.2-0.2l0.05-0.05
			c0.13-0.01,0.19-0.07,0.2-0.2l0.05-0.05c0.13-0.01,0.19-0.08,0.2-0.2l0.05-0.05c0.13-0.01,0.19-0.08,0.2-0.2l0.05-0.05
			c0.13-0.01,0.19-0.08,0.2-0.2l0.05-0.05c0.13-0.01,0.19-0.08,0.2-0.2l0.05-0.05c0.12,0,0.18-0.06,0.18-0.18
			c1.73-1.72,3.47-3.43,5.2-5.15c0.17-0.17,0.31-0.38,0.47-0.56c0.31-0.28,0.64-0.54,0.93-0.83c1.98-1.99,3.96-3.98,5.94-5.97
			c3.11-3.12,6.21-6.23,9.32-9.35c0.22-0.22,0.51-0.4,0.59-0.83C184.47,181.2,183.27,181.16,182.06,181.16z"/>
		
			<linearGradient id="SVGID_7_" gradientUnits="userSpaceOnUse" x1="345.1876" y1="341.3577" x2="213.1866" y2="473.3586" gradientTransform="matrix(1 0 0 -1 0 595.28)">
			<stop  offset="0" style="stop-color:#003F1E"/>
			<stop  offset="1" style="stop-color:#007231"/>
		</linearGradient>
		<path class="st11" d="M356.72,211.24c0.01-0.31-0.07-0.57-0.3-0.79c-1.15-1.1-2.29-2.2-3.43-3.3c-0.22-0.25-0.42-0.52-0.65-0.75
			c-4.43-4.43-8.87-8.85-13.31-13.28c-0.2-0.2-0.44-0.38-0.66-0.56c-0.83-1.06-1.85-1.93-2.8-2.87c-5.4-5.39-10.8-10.78-16.21-16.17
			c-0.29-0.29-0.62-0.55-0.93-0.83c-0.21-0.42-0.59-0.7-0.92-1.02c-4.04-4.03-8.08-8.04-12.12-12.07
			c-6.12-6.1-12.24-12.19-18.36-18.29c-6.59-6.57-13.19-13.14-19.78-19.71c-5.91-5.89-11.81-11.79-17.72-17.69
			c-2.82-2.81-5.64-5.62-8.47-8.43c-0.23-0.23-0.41-0.55-0.82-0.58c-0.11,0.1-0.24,0.2-0.35,0.32c-4.47,4.49-8.93,8.98-13.39,13.47
			c-6.45,6.48-12.9,12.96-19.35,19.44c-5.89,5.91-11.78,11.82-17.67,17.73c-1.04,1.04-2.07,2.08-3.09,3.13
			c-0.13,0.13-0.36,0.23-0.26,0.58c0.42,0.01,0.87,0.04,1.32,0.04c7.21,0,14.42,0,21.64,0c2.43,0,4.86-0.01,7.3,0.01
			c0.58,0.01,1.02-0.14,1.44-0.56c4.97-4.93,9.97-9.84,14.95-14.75c2.21-2.18,4.42-4.36,6.63-6.53c0.29-0.28,0.55-0.6,0.95-0.8
			c0.35,0.33,0.65,0.62,0.95,0.91c5.62,5.59,11.23,11.19,16.84,16.78c5.64,5.62,11.29,11.24,16.93,16.87
			c5.14,5.12,10.27,10.25,15.4,15.37c3.8,3.79,7.61,7.57,11.41,11.36c0.2,0.2,0.44,0.37,0.66,0.56c0.25,0.28,0.48,0.57,0.74,0.84
			c6.33,6.32,12.66,12.63,18.99,18.94c0.2,0.2,0.44,0.38,0.66,0.56l0.03,0.03c0.01,0.14,0.08,0.21,0.22,0.22l0.03,0.03
			c0.01,0.14,0.08,0.21,0.22,0.22l0.03,0.03c0.01,0.14,0.08,0.21,0.22,0.22l0.03,0.03c0.01,0.14,0.09,0.21,0.22,0.22l0.03,0.03
			c0.01,0.14,0.09,0.21,0.22,0.22l0.03,0.03c0.01,0.14,0.09,0.21,0.22,0.22l0.03,0.03c0.01,0.13,0.08,0.21,0.22,0.22
			c0.05,0.15,0.15,0.24,0.3,0.29c0.01,0.12,0.07,0.18,0.19,0.18c0.12,0.11,0.23,0.23,0.35,0.34c0,0.12,0.06,0.17,0.18,0.18
			l0.05,0.05c0.01,0.12,0.07,0.19,0.2,0.2l0.05,0.05c0.01,0.12,0.07,0.19,0.2,0.2l0.05,0.05c0.01,0.12,0.07,0.19,0.2,0.2l0.05,0.05
			c0.01,0.12,0.07,0.19,0.2,0.2l0.05,0.05c0.01,0.12,0.07,0.19,0.2,0.2l0.05,0.05c0.01,0.12,0.07,0.19,0.2,0.2l0.05,0.05
			c0.01,0.12,0.08,0.19,0.2,0.2l0.05,0.05c0.01,0.12,0.08,0.19,0.2,0.2l0.05,0.05c0.01,0.12,0.08,0.19,0.2,0.2l0.05,0.05
			c0.01,0.12,0.08,0.19,0.2,0.2l0.05,0.05c0.01,0.12,0.08,0.19,0.2,0.2l0.05,0.05c0.01,0.12,0.08,0.19,0.2,0.2l0.05,0.05
			c0.01,0.12,0.08,0.19,0.2,0.2l0.05,0.05c0.01,0.12,0.08,0.19,0.2,0.2l0.05,0.05c0.01,0.12,0.08,0.19,0.2,0.2l0.05,0.05
			c0.01,0.12,0.08,0.19,0.2,0.2l0.05,0.05c0.01,0.12,0.08,0.19,0.2,0.2l0.05,0.05c0.01,0.12,0.08,0.19,0.2,0.2l0.05,0.05
			c0.01,0.12,0.08,0.19,0.2,0.2l0.05,0.05c0.01,0.12,0.08,0.19,0.2,0.2l0.05,0.05c0.01,0.12,0.08,0.19,0.2,0.2l0.05,0.05
			c0.01,0.12,0.08,0.19,0.2,0.2l0.05,0.05c0.01,0.12,0.08,0.19,0.2,0.2l0.05,0.05c0.01,0.12,0.08,0.19,0.2,0.2l0.05,0.05
			c0.01,0.12,0.08,0.19,0.2,0.2l0.05,0.05c0.01,0.12,0.08,0.19,0.2,0.2l0.05,0.05c0.01,0.12,0.08,0.19,0.2,0.2l0.05,0.05
			c0.01,0.12,0.08,0.19,0.2,0.2l0.05,0.05c0.01,0.12,0.08,0.19,0.2,0.2l0.05,0.05c0.01,0.12,0.08,0.19,0.2,0.2l0.05,0.05
			c0,0.12,0.06,0.18,0.18,0.17c1.12,1.19,2.25,2.39,3.5,3.46c0.28,0.31,0.54,0.63,0.83,0.93c3.11,3.11,6.23,6.21,9.34,9.32
			c2.88,2.87,5.75,5.74,8.63,8.6c0.22,0.22,0.4,0.51,0.82,0.61c0.01-0.29,0.03-0.49,0.03-0.69c0.02-10.05,0.03-20.1,0.04-30.16
			C356.72,211.57,356.71,211.4,356.72,211.24z"/>
		<g>
			<path class="st1" d="M242.58,300.02c-13.33,0-26.67,0-40,0c-1.7,0-1.5,0.25-1.51-1.56c-0.01-0.96-0.01-1.93,0-2.89
				c0.01-0.5,0.07-0.55,0.6-0.56c0.34-0.01,0.67,0,1.01,0c26.63,0,53.26,0,79.88,0c0.38,0,0.75,0,1.13,0.01
				c0.3,0.01,0.45,0.17,0.45,0.47c0,0.84,0.02,1.68,0,2.52c-0.02,0.62,0.12,1.25-0.1,1.86c-0.63,0.32-1.31,0.15-1.96,0.15
				C268.92,300.02,255.75,300.02,242.58,300.02z"/>
			<path class="st1" d="M242.67,336.63c13.33,0,26.66,0,39.99,0c1.67,0,1.47-0.15,1.48,1.47c0.01,0.88,0.01,1.76,0,2.64
				c-0.01,0.87-0.01,0.87-0.93,0.88c-0.21,0-0.42,0-0.63,0c-26.66,0-53.33,0-79.99,0c-1.79,0-1.51,0.25-1.53-1.51
				c-0.01-1.01,0-2.01,0.01-3.02c0-0.3,0.17-0.45,0.47-0.46c0.38,0,0.75-0.01,1.13-0.01C216.01,336.63,229.34,336.63,242.67,336.63z
				"/>
			<path class="st1" d="M242.42,327.77c-13.29,0-26.58,0-39.88,0c-1.71,0-1.46,0.23-1.48-1.44c-0.01-1.01-0.01-2.01,0.01-3.02
				c0.01-0.42,0.12-0.53,0.51-0.54c0.34-0.01,0.67,0,1.01,0c26.67,0,53.34,0,80,0c1.75,0,1.54-0.2,1.55,1.52
				c0.01,1.01,0,2.01,0,3.02c0,0.31-0.17,0.45-0.46,0.46c-0.38,0.01-0.75,0.01-1.13,0.01C269.18,327.77,255.8,327.77,242.42,327.77z
				"/>
			<path class="st1" d="M242.67,313.88c-13.21,0-26.42,0-39.63,0c-0.25,0-0.5,0-0.75,0c-1.28-0.01-1.22,0.13-1.22-1.22
				c0-1.13,0-2.26,0.01-3.4c0-0.24,0.13-0.39,0.39-0.39c0.29-0.01,0.59-0.01,0.88-0.01c26.84,0,53.67,0,80.51,0
				c1.39,0,1.29-0.12,1.29,1.28c0,1.09,0,2.18,0,3.27c0,0.31-0.17,0.46-0.47,0.46c-0.38,0.01-0.75,0.01-1.13,0.01
				C269.26,313.88,255.96,313.88,242.67,313.88z"/>
			<path class="st1" d="M242.53,281.14c13.38,0,26.75,0,40.13,0c1.7,0,1.48-0.17,1.49,1.45c0.01,1.01,0.01,2.01-0.01,3.02
				c-0.01,0.41-0.12,0.51-0.53,0.53c-0.33,0.01-0.67,0.01-1.01,0.01c-26.67,0-53.33,0-80,0c-1.72,0-1.53,0.23-1.54-1.53
				c0-1.01,0-2.01,0-3.02c0-0.31,0.15-0.45,0.46-0.45c0.38,0,0.75,0,1.13,0C215.95,281.14,229.24,281.14,242.53,281.14z"/>
			<path class="st1" d="M223.14,258.33c-6.84,0-13.67,0-20.51,0c-0.38,0-0.75-0.01-1.13-0.01c-0.32,0-0.43-0.18-0.43-0.48
				c0-1.34,0-2.68,0-4.03c0-0.29,0.14-0.47,0.45-0.48c0.34-0.01,0.67-0.01,1.01-0.01c13.76,0,27.51,0,41.27,0
				c1.6,0,1.42-0.17,1.43,1.39c0.01,1.05,0,2.1,0,3.15c0,0.31-0.14,0.46-0.45,0.46c-0.38,0-0.75,0-1.13,0
				C236.81,258.33,229.98,258.33,223.14,258.33z"/>
			<path class="st1" d="M262.02,355.51c-6.83,0-13.67,0-20.5,0c-0.34,0-0.67,0.01-1.01-0.01c-0.47-0.02-0.56-0.11-0.56-0.62
				c-0.01-1.26-0.01-2.52,0-3.77c0-0.46,0.12-0.55,0.62-0.57c0.29-0.01,0.59,0,0.88,0c13.75,0,27.5,0,41.25,0
				c0.34,0,0.67-0.01,1.01,0.01c0.3,0.02,0.44,0.19,0.44,0.49c0,1.34,0,2.68-0.01,4.02c0,0.32-0.2,0.43-0.49,0.44
				c-0.34,0.01-0.67,0.01-1.01,0.01C275.77,355.51,268.9,355.51,262.02,355.51z"/>
			<path class="st1" d="M223.17,272.21c-7,0-14,0-21.01,0c-1.16,0-1.09,0.07-1.09-1.09c0-1.09-0.01-2.18,0-3.27
				c0.01-0.56,0.05-0.59,0.55-0.61c0.29-0.01,0.59,0,0.88,0c13.75,0,27.51,0,41.26,0c0.13,0,0.25,0,0.38,0
				c1.15,0,1.09-0.08,1.09,1.09c0,1.09,0.01,2.18,0,3.27c-0.01,0.57-0.03,0.59-0.55,0.61c-0.38,0.01-0.75,0.01-1.13,0.01
				C236.75,272.21,229.96,272.21,223.17,272.21z"/>
		</g>
		
			<linearGradient id="SVGID_8_" gradientUnits="userSpaceOnUse" x1="69.6716" y1="269.9067" x2="198.6521" y2="195.4397" gradientTransform="matrix(1 0 0 -1 0 595.28)">
			<stop  offset="0" style="stop-color:#003F1E"/>
			<stop  offset="1" style="stop-color:#009940"/>
		</linearGradient>
		<path class="st12" d="M174.19,440.28c-6.85-6.85-13.7-13.7-20.55-20.55c-0.09-0.09-0.19-0.17-0.26-0.27
			c-0.34-0.45-0.8-0.53-1.33-0.53c-4.4-0.01-8.8-0.05-13.21-0.08c-5.79-0.04-11.57-0.07-17.36-0.1c-0.21,0-0.42,0-0.63-0.02
			c-0.23-0.02-0.39-0.16-0.4-0.4c-0.02-0.33-0.02-0.67-0.02-1.01c0-2.35,0.01-4.7,0-7.04c-0.01-1.51-0.06-3.01-0.09-4.52
			c0.02-0.46,0.06-0.92,0.05-1.37c0-8.57-0.01-17.14-0.02-25.71c0-2.51-0.01-5.02-0.02-7.53c0-0.29-0.04-0.58-0.06-0.87l0,0
			c0.02-0.42,0.05-0.83,0.05-1.25c0-3.85-0.01-7.7-0.02-11.55c-0.01-9.79-0.01-19.59-0.02-29.38c0-2.09-0.01-4.18-0.03-6.28
			c0-0.29-0.05-0.58-0.08-0.87c0.02-0.46,0.07-0.91,0.07-1.37c-0.01-3.57-0.02-7.13-0.03-10.7v-17.21c0-0.12,0.01-0.24,0-0.36
			v-10.26h-0.07c0-7.71-0.01-15.42-0.02-23.13c0-0.92-0.01-1.84-0.03-2.77c0-0.15,0.07-0.35-0.23-0.44
			c-0.15,0.14-0.33,0.29-0.5,0.46c-7.1,7.07-14.2,14.14-21.31,21.2c-0.45,0.45-0.65,0.89-0.64,1.54c0.03,3.05,0.03,6.11,0.04,9.16
			v22.29h0.03c0,3.4,0,6.81,0.01,10.21c0,0.46-0.07,0.92,0.09,1.37c-0.02,0.42-0.07,0.83-0.07,1.25c0.01,6.32,0.03,12.64,0.05,18.96
			c0.02,7.78,0.04,15.57,0.06,23.35c0,1.51,0,3.01,0,4.52c0,0.42,0.04,0.83,0.06,1.25c-0.02,0.46-0.07,0.91-0.06,1.37
			c0.01,5.23,0.02,10.45,0.03,15.68c0.01,5.85,0.02,11.71,0.03,17.56c0,0.37,0.03,0.75,0.05,1.12c-0.02,0.46-0.05,0.92-0.05,1.38
			c0,7.97,0.01,15.93,0.02,23.9c0,2.98,0.01,5.95,0.02,8.93c0,0.29,0.01,0.59,0.03,0.88c0.01,0.19,0.14,0.3,0.33,0.31
			c0.17,0.02,0.33,0.02,0.5,0.02c4.7-0.03,9.39-0.07,14.09-0.09c4.32-0.02,8.64-0.03,12.96-0.04c4.4-0.01,8.81-0.02,13.21-0.02
			c7.84-0.01,15.68-0.01,23.53-0.02c3.94,0,7.88-0.01,11.83-0.03c0.22,0,0.51,0.13,0.67-0.23
			C174.65,440.76,174.43,440.51,174.19,440.28z"/>
		
			<linearGradient id="SVGID_9_" gradientUnits="userSpaceOnUse" x1="197.4623" y1="192.5398" x2="384.1534" y2="192.5398" gradientTransform="matrix(1 0 0 -1 0 595.28)">
			<stop  offset="0" style="stop-color:#003F1E"/>
			<stop  offset="1" style="stop-color:#009940"/>
		</linearGradient>
		<path class="st13" d="M384.15,439.72c-0.01-8.34-0.03-16.69-0.04-25.03c-0.02-11.24-0.03-22.47-0.05-33.71
			c-0.01-5.28-0.02-10.57-0.03-15.85c0-0.29,0-0.59-0.02-0.88c0-0.06-0.07-0.15-0.14-0.18c-0.06-0.02-0.17-0.01-0.23,0.03
			c-0.16,0.13-0.31,0.28-0.46,0.43c-6.94,6.94-13.87,13.88-20.82,20.8c-0.44,0.44-0.66,0.88-0.66,1.53
			c-0.02,6.62-0.09,13.25-0.14,19.87c-0.03,3.48-0.05,6.96-0.07,10.44c-0.01,1.33,0.04,1.2-1.25,1.2
			c-8.09,0.01-16.18,0.02-24.28,0.04c-1.05,0-2.1,0-3.14,0c-0.37,0-0.76-0.06-1.11,0.13c2.16,0.01,4.31,0.02,6.47,0.04
			c-2.16-0.02-4.31-0.03-6.47-0.04c-0.21-0.02-0.41-0.06-0.62-0.06c-3.81,0-7.62-0.01-11.43,0c-0.25,0-0.5,0.05-0.74,0.07
			c-0.41-0.02-0.83-0.07-1.24-0.07c-1.54,0-3.09,0.03-4.63,0.03c-4.55,0-9.1,0-13.65,0c-0.79,0-1.58,0.05-2.37,0.08
			c-0.29-0.02-0.58-0.05-0.87-0.05c-7.35,0-14.69,0.01-22.04,0.02c-0.25,0-0.5,0.04-0.75,0.05c0,7.53,0,15.06-0.01,22.59
			c0-7.53,0-15.06,0.01-22.59c-0.33-0.02-0.66-0.05-1-0.05c-5.75,0-11.51,0.01-17.26,0.02c-0.29,0-0.58,0.04-0.87,0.05
			c-1.2-0.02-2.4-0.05-3.6-0.05c-0.99,0-1.98,0.04-2.97,0.06c-0.42-0.02-0.83-0.05-1.25-0.05c-5.78,0-11.55,0.01-17.33,0.02
			c-10.17,0.01-20.34,0.02-30.51,0.03c-0.29,0-0.59,0-0.88,0.01c-0.07,0-0.18,0.05-0.21,0.11c-0.07,0.12,0,0.22,0.13,0.28
			c0.07,0.1,0.14,0.21,0.22,0.3c6.67,6.69,13.34,13.39,20.01,20.07c0.11,0.11,0.26,0.2,0.4,0.29c0.43,0.57,0.89,1.13,1.51,1.52
			c0.13,0.22,0.35,0.2,0.55,0.2c0.71-0.01,1.42-0.03,2.14-0.03c7.88-0.02,15.75-0.05,23.63-0.07c2.3-0.01,4.61,0,6.91-0.01
			c0.26,0,0.52-0.02,0.79-0.04h0.9c0.27,0.02,0.54,0.04,0.81,0.04c3-0.01,6-0.03,9.01-0.04c1.19,0,2.38,0,3.57,0h1.62l0,0
			c0.81,0,1.62,0,2.44,0c0.42,0,0.83-0.04,1.25-0.06c0.37,0.02,0.75,0.06,1.12,0.06c7.18-0.01,14.36-0.01,21.54-0.03
			c0.33,0,0.66-0.04,1-0.05c0.33,0.02,0.66,0.06,1,0.06c6.59,0,13.18-0.01,19.78-0.02c0.37,0,0.75-0.05,1.12-0.07
			c0.29,0.02,0.58,0.05,0.87,0.05c5.84,0,11.68,0,17.52,0c0.83,0,1.67-0.05,2.5-0.07c0.25,0.02,0.5,0.05,0.75,0.05
			c5.34,0,10.69,0,16.03,0c0.29,0,0.58-0.05,0.87-0.07l0,0c0.46,0.02,0.92,0.05,1.38,0.05c7.97-0.01,15.93-0.02,23.9-0.03
			C384.29,441.14,384.15,441.3,384.15,439.72z M198.34,418.82c0.1,0,0.2,0.01,0.3,0.02C198.54,418.83,198.44,418.82,198.34,418.82z
			 M234.36,418.87L234.36,418.87C234.36,418.87,234.36,418.86,234.36,418.87c-1.37,0-2.75,0-4.12,0h-0.05l0,0
			c-3.64,0-7.28,0.01-10.93,0.01C224.3,418.87,229.33,418.87,234.36,418.87C234.36,418.86,234.36,418.87,234.36,418.87z"/>
		
			<linearGradient id="SVGID_10_" gradientUnits="userSpaceOnUse" x1="284.09" y1="402.765" x2="97.4372" y2="402.765" gradientTransform="matrix(1 0 0 -1 0 595.28)">
			<stop  offset="0" style="stop-color:#003F1E"/>
			<stop  offset="1" style="stop-color:#009940"/>
		</linearGradient>
		<path class="st14" d="M283.5,175.6c-2.27-2.29-4.55-4.58-6.83-6.87c-4.43-4.46-8.87-8.91-13.31-13.37
			c-0.44-0.44-0.91-0.86-1.37-1.29c-0.09,0-0.15-0.05-0.17-0.14c-0.08-0.03-0.15-0.08-0.23-0.08c-2.37,0.01-4.73,0.03-7.1,0.04
			c-1.1-0.09-2.21-0.1-3.31,0.01c-0.46-0.02-0.92-0.05-1.38-0.05c-8.54,0.01-17.09,0.01-25.63,0.03c-4.15,0.01-8.29,0.03-12.44,0.04
			c-6.74,0.02-13.49,0.04-20.23,0.06c-2.93,0.01-5.86,0-8.8,0.01c-0.42,0-0.84-0.07-1.25,0.07c-0.21-0.02-0.41-0.07-0.62-0.07
			c-2.18,0-4.35-0.01-6.53,0c-1.46,0.01-2.92,0.06-4.39,0.09c-0.25-0.02-0.5-0.06-0.74-0.06c-6.68,0.01-13.35,0.02-20.03,0.03
			c-0.21,0-0.41,0.03-0.62,0.05c-0.37-0.02-0.75-0.05-1.12-0.05c-7.77,0-15.53,0.01-23.3,0.02c-0.33,0-0.66,0.03-1,0.05
			c-0.38-0.02-0.75-0.05-1.13-0.05c-7.75,0-15.51,0.01-23.26,0.02c-0.25,0-0.5-0.01-0.75,0.01c-0.41,0.02-0.51,0.11-0.52,0.53
			c-0.01,1.22,0.01,2.43,0.01,3.65c0.01,7.84,0.01,15.68,0.03,23.52c0.01,4.99,0.05,9.97,0.07,14.96c0.02,4.65,0.04,9.3,0.06,13.96
			c0.02,6.46,0.02,12.91,0.03,19.37c0,0.21-0.01,0.42,0,0.63c0.01,0.19-0.06,0.43,0.24,0.49c0.09-0.08,0.2-0.15,0.29-0.24
			c7.06-7.05,14.11-14.11,21.17-21.15c0.39-0.39,0.54-0.8,0.54-1.33c0.03-4.27,0.09-8.55,0.12-12.82c0.04-4.9,0.05-9.81,0.08-14.71
			c0.01-1.13,0.01-2.26,0.02-3.39c0.01-0.64,0.06-0.68,0.74-0.71c0.75-0.03,1.51,0.07,2.25-0.07c0.58,0.14,1.16,0.06,1.75,0.06
			c0.83,0,1.67-0.03,2.5-0.03c6.68-0.01,13.36-0.02,20.04-0.03c0.37,0,0.75-0.04,1.12-0.06c0.37,0.02,0.75,0.06,1.12,0.05
			c6.43,0,12.85-0.01,19.28-0.02c0.33,0,0.66-0.04,1-0.05c0.33,0.02,0.66,0.05,1,0.05c6.68,0,13.35-0.01,20.03-0.02
			c0.29,0,0.58-0.03,0.87-0.05c0.12,0.02,0.25,0.05,0.37,0.05c5.51,0,11.01-0.01,16.52-0.02c0.25,0,0.5-0.04,0.74-0.06
			c0.42,0.01,0.83,0.04,1.25,0.04c5.9-0.01,11.81-0.02,17.71-0.03c4.69-0.01,9.39-0.02,14.08-0.02h0.97l0,0
			c5.16-0.01,10.32-0.02,15.47-0.03c0.37,0,0.75,0.08,1.11-0.1c0.08,0.01,0.17,0.03,0.25,0.03c7.8-0.01,15.59-0.01,23.39-0.02
			c0.15,0,0.34,0.06,0.43-0.19C284.01,176.01,283.72,175.83,283.5,175.6z M209.65,176.54c0.18-0.08,0.37-0.08,0.57-0.08
			C210.02,176.46,209.83,176.46,209.65,176.54z M215.76,176.44c-1.7,0.01-3.39,0.02-5.09,0.04
			C212.37,176.46,214.06,176.45,215.76,176.44L215.76,176.44z M253.13,176.45c0.04,0,0.07,0,0.11,0l0,0
			C253.21,176.45,253.17,176.45,253.13,176.45z"/>
	</g>
</g>
</svg>
