<svg height="511pt" viewBox="-46 1 511 511.999" width="511pt" xmlns="http://www.w3.org/2000/svg"><path d="m415.523438 75.855469-71.449219-71.445313c-2.820313-2.824218-6.652344-4.410156-10.644531-4.410156h-266.4375c-8.316407 0-15.054688 6.742188-15.054688 15.054688v305.875c-30.714844 17.679687-51.4375 50.839843-51.4375 88.75 0 56.417968 45.898438 102.320312 102.320312 102.320312 36.304688 0 68.25-19.007812 86.414063-47.589844h215.640625c8.3125 0 15.054688-6.742187 15.054688-15.058594v-362.847656c.003906-3.992187-1.585938-7.824218-4.40625-10.648437zm-47.109376-4.519531-19.929687-.0625v-19.867188zm-265.59375 410.550781c-39.816406 0-72.207031-32.390625-72.207031-72.207031 0-39.816407 32.390625-72.210938 72.207031-72.210938 39.816407 0 72.210938 32.394531 72.210938 72.210938 0 39.816406-32.394531 72.207031-72.210938 72.207031zm287-47.589844h-187.679687c1.957031-7.886719 3-16.132813 3-24.617187 0-56.421876-45.898437-102.320313-102.320313-102.320313-7.113281 0-14.0625.730469-20.769531 2.121094v-279.367188h236.320313v56.167969c0 8.296875 6.714844 15.03125 15.011718 15.058594h56.4375zm0 0"/><path d="m132.265625 394.621094h-14.386719v-14.386719c0-8.3125-6.742187-15.054687-15.058594-15.054687-8.3125 0-15.054687 6.742187-15.054687 15.054687v14.386719h-14.386719c-8.316406 0-15.054687 6.742187-15.054687 15.058594 0 8.3125 6.738281 15.054687 15.054687 15.054687h14.386719v14.386719c0 8.316406 6.742187 15.054687 15.054687 15.054687 8.316407 0 15.058594-6.738281 15.058594-15.054687v-14.386719h14.386719c8.316406 0 15.054687-6.742187 15.054687-15.054687 0-8.316407-6.738281-15.058594-15.054687-15.058594zm0 0"/><path d="m142.304688 165.71875h112.078124c8.3125 0 15.054688-6.742188 15.054688-15.058594 0-8.3125-6.742188-15.054687-15.054688-15.054687h-112.078124c-8.316407 0-15.058594 6.742187-15.058594 15.054687 0 8.316406 6.742187 15.058594 15.058594 15.058594zm0 0"/><path d="m323.640625 195.828125h-181.335937c-8.316407 0-15.058594 6.742187-15.058594 15.058594 0 8.3125 6.742187 15.054687 15.058594 15.054687h181.335937c8.316406 0 15.054687-6.742187 15.054687-15.054687 0-8.316407-6.738281-15.058594-15.054687-15.058594zm0 0"/><path d="m323.640625 256.054688h-181.335937c-8.316407 0-15.058594 6.742187-15.058594 15.054687 0 8.316406 6.742187 15.058594 15.058594 15.058594h181.335937c8.316406 0 15.054687-6.742188 15.054687-15.058594 0-8.3125-6.738281-15.054687-15.054687-15.054687zm0 0"/></svg>