<svg id="Layer_1" data-name="Layer 1" xmlns="http://www.w3.org/2000/svg" viewBox="0 0 16 16"><title>CreateSubtask_16</title><rect x="2" y="4" width="11" height="11" fill="#fff"/><path d="M15,9v6H9V9h6m1-1H8v7.5a0.5,0.5,0,0,0,.5.5h7a0.5,0.5,0,0,0,.5-0.5V8h0Z" fill="#798288"/><rect x="9" y="9" width="6" height="6" fill="#fff"/><path d="M15,7V7.5a0.5,0.5,0,0,1-1,0V7H10V7.5a0.5,0.5,0,0,1-1,0V7H8.5a0.5,0.5,0,0,0-.5.5C8,7.29,8,9,8,9h8V7.5A0.53,0.53,0,0,0,15.5,7H15Z" fill="#798288"/><path d="M11.61,14a0.35,0.35,0,0,1-.22-0.08l-1.26-1a0.35,0.35,0,1,1,.44-0.54l1,0.81,1.82-2.36a0.35,0.35,0,1,1,.55.43l-2,2.64a0.35,0.35,0,0,1-.24.13h0Z" fill="#d65633"/><path d="M7,15H2V4H13V6h1V1a1,1,0,0,0-1-1H12V1H11V0H4V1H3V0H2A1,1,0,0,0,1,1V15a1,1,0,0,0,1,1H7V15Z" fill="#798288"/></svg>