<svg id="Capa_1" enable-background="new 0 0 512 512" height="512" viewBox="0 0 512 512" width="512" xmlns="http://www.w3.org/2000/svg"><g><path d="m504.485 403.663h-18.531v-24.243c0-4.151-3.364-7.515-7.515-7.515h-295.054c-4.151 0-7.515 3.364-7.515 7.515s3.364 7.515 7.515 7.515h287.54v16.729h-368.08v-16.729h50.481c4.151 0 7.515-3.364 7.515-7.515s-3.364-7.515-7.515-7.515h-57.996c-4.151 0-7.515 3.364-7.515 7.515v24.244h-23.972v-21.13l246.894-246.894c2.934-2.935 2.934-7.693 0-10.628-2.935-2.933-7.693-2.933-10.628 0l-246.893 246.893h-27.56l314.144-314.144c8.686-8.686 21.863-10.207 32.121-4.562l-50.545 50.544c-2.934 2.936-2.934 7.693 0 10.628 2.935 2.934 7.693 2.934 10.628 0l56.611-56.61c2.934-2.936 2.934-7.693 0-10.628-16.386-16.387-43.051-16.389-59.442 0l-326.972 326.973c-1.395 1.4-2.195 3.335-2.201 5.314v60.164c0 20.718 16.855 37.573 37.573 37.573h247.53c4.151 0 7.515-3.364 7.515-7.515s-3.364-7.515-7.515-7.515h-247.53c-12.43 0-22.544-10.113-22.544-22.544v-20.891h481.941v20.891c0 12.431-10.114 22.544-22.544 22.544h-159.264c-4.151 0-7.515 3.364-7.515 7.515s3.364 7.515 7.515 7.515h159.264c20.718 0 37.573-16.855 37.573-37.573v-28.406c.001-4.151-3.363-7.515-7.514-7.515zm-455.671-16.729v16.729h-33.785v-16.729z"/><path d="m453.126 447.926c4.151 0 7.515-3.364 7.515-7.515s-3.364-7.515-7.515-7.515h-25.589c-4.151 0-7.515 3.364-7.515 7.515s3.364 7.515 7.515 7.515z"/><path d="m390.006 447.926c4.151 0 7.515-3.364 7.515-7.515s-3.364-7.515-7.515-7.515h-25.589c-4.151 0-7.515 3.364-7.515 7.515s3.364 7.515 7.515 7.515z"/></g></svg>