<svg id="Layer_1" data-name="Layer 1" xmlns="http://www.w3.org/2000/svg" viewBox="0 0 16 16"><title>MarkRead_16</title><path d="M15,15H1V5S4.86,0.35,8,.5C12,0.69,15,5,15,5V15Z" fill="#fff"/><path d="M16,5a0.49,0.49,0,0,0-.17-0.38C15.29,4.15,10.48,0,8,0H8C5.51,0,.71,4.15.17,4.62A0.49,0.49,0,0,0,0,5H0V15a1,1,0,0,0,1,1H15a1,1,0,0,0,1-1V5h0Zm-5.35,6.35,3.54,3.54a0.49,0.49,0,0,0,.17.11H1.64a0.49,0.49,0,0,0,.17-0.11l3.54-3.54a0.5,0.5,0,0,0-.71-0.71L1.11,14.18a0.5,0.5,0,0,0-.11.17V7.07C2.6,8.39,6,11,8,11H8c2,0,5.39-2.61,7-3.92v7.28a0.5,0.5,0,0,0-.11-0.17l-3.54-3.54A0.5,0.5,0,0,0,10.65,11.35ZM8,1H8c1.72,0,5.48,2.93,7,4.23V5.77C13.48,7.07,9.72,10,8,10H8C6.28,10,2.52,7.07,1,5.77V5.23C2.52,3.93,6.28,1,8,1ZM1,14.72a0.49,0.49,0,0,0,.28.28H1V14.72ZM14.72,15A0.49,0.49,0,0,0,15,14.72V15H14.72Z" fill="#798288"/></svg>