<svg width="16" height="16" viewBox="0 0 16 16" fill="none" xmlns="http://www.w3.org/2000/svg">
<path fill-rule="evenodd" clip-rule="evenodd" d="M1.01575 9C1.45505 12.0959 3.90411 14.5449 6.99998 14.9843V12.8973C5.04231 12.4997 3.5003 10.9577 3.1027 9H1.01575ZM12.8973 7C12.4997 5.04232 10.9577 3.5003 8.99998 3.1027V1.01575C12.0959 1.45504 14.5449 3.90411 14.9843 7H12.8973ZM8.99998 12.8973C10.9577 12.4997 12.4997 10.9577 12.8973 9H14.9843C14.545 12.0959 12.0959 14.545 8.99998 14.9843V12.8973Z" fill="#407FB9"/>
<path opacity="0.2" fill-rule="evenodd" clip-rule="evenodd" d="M6.99998 1.01575C3.90411 1.45505 1.45506 3.90411 1.01575 6.99998H3.10252C3.50014 5.04222 5.04222 3.50013 6.99998 3.10252V1.01575Z" fill="#407FB9"/>
</svg>
