<svg width="16" height="16" viewBox="0 0 16 16" fill="none" xmlns="http://www.w3.org/2000/svg">
<path fill-rule="evenodd" clip-rule="evenodd" d="M7.00003 4H15V4.23802L9 8.39187L6.17362 6.43515C5.96654 6.70462 5.7259 6.94697 5.45796 7.15595L8.71539 9.4111L9 9.60813L9.28461 9.4111L15 5.45428V13H3V8C2.6547 8 2.31962 7.95624 2 7.87397V13C2 13.5523 2.44772 14 3 14H15C15.5523 14 16 13.5523 16 13V4C16 3.44772 15.5523 3 15 3H6.87401C6.95628 3.31962 7.00003 3.6547 7.00003 4Z" fill="#407FB9"/>
<circle cx="3" cy="4" r="3" fill="#407FB9"/>
</svg>
