<?xml version="1.0" encoding="iso-8859-1"?>
<!-- Generator: Adobe Illustrator 19.0.0, SVG Export Plug-In . SVG Version: 6.00 Build 0)  -->
<svg version="1.1" id="Layer_1" xmlns="http://www.w3.org/2000/svg" xmlns:xlink="http://www.w3.org/1999/xlink" x="0px" y="0px"
	 viewBox="0 0 512 512" style="enable-background:new 0 0 512 512;" xml:space="preserve">
<g>
	<g>
		<path d="M343.962,312.32c-7.04-5.871-17.783-10.897-32.828-15.394v-49.579c3.448,0.802,6.4,2.048,8.764,3.746
			c4.702,3.524,7.151,8.721,7.484,15.701c0,4.173,1.348,7.646,4.036,10.325c4.847,4.821,13.841,4.599,17.997-0.051
			c2.628-2.671,3.959-6.153,3.959-10.274c0-13.124-4.574-23.902-13.636-32.102c-7.509-6.647-17.126-10.752-28.612-12.151v-6.05
			c0-7.1-4.676-11.699-11.913-11.699c-7.1,0-11.691,4.599-11.691,11.699v5.999c-11.537,1.323-21.35,5.427-29.21,12.151
			c-10.24,8.926-15.428,20.821-15.428,35.422c0,12.774,4.702,23.228,13.935,31.078c7.091,6.101,17.135,10.871,30.703,14.524v53.623
			c-5.897-1.246-10.641-3.354-14.114-6.221c-6.101-5.171-9.011-12.851-8.892-23.526c0-4.096-1.263-7.552-3.541-9.822
			c-4.489-5.026-13.739-4.872-17.801-0.247c-2.509,2.5-3.789,5.871-3.789,10.078c0,19.473,6.025,34.099,17.954,43.529
			c7.339,5.521,17.476,9.225,30.174,11.025v10.351c0,7.228,4.591,11.904,11.691,11.904c7.236,0,11.913-4.676,11.913-11.904v-10.129
			c12.066-1.852,22.451-6.451,30.925-13.696c10.854-9.301,16.358-21.376,16.358-35.857
			C358.4,331.093,353.536,320.171,343.962,312.32z M287.539,290.15c-5.948-2.176-10.385-4.753-13.235-7.646
			c-3.49-3.601-5.188-8.149-5.188-13.952c0-7.074,2.526-12.271,7.936-16.324c3.012-2.253,6.528-3.874,10.487-4.898V290.15z
			 M322.961,363.477c-3.439,2.551-7.398,4.429-11.827,5.623v-46.549c9.062,2.85,13.312,5.478,15.309,7.296
			c3.661,3.226,5.513,8.704,5.513,16.222C331.964,353.553,329.114,359.074,322.961,363.477z"/>
	</g>
</g>
<g>
	<g>
		<path d="M51.2,0v460.8h358.4V0H51.2z M384,435.2H76.8V25.6H384V435.2z"/>
	</g>
</g>
<g>
	<g>
		<polygon points="435.2,51.2 435.2,486.4 102.4,486.4 102.4,512 460.8,512 460.8,51.2 		"/>
	</g>
</g>
<g>
	<g>
		<rect x="102.4" y="51.2" width="256" height="25.6"/>
	</g>
</g>
<g>
	<g>
		<rect x="102.4" y="153.6" width="76.8" height="25.6"/>
	</g>
</g>
<g>
	<g>
		<rect x="102.4" y="358.4" width="76.8" height="25.6"/>
	</g>
</g>
<g>
	<g>
		<rect x="102.4" y="102.4" width="128" height="25.6"/>
	</g>
</g>
<g>
	<g>
		<rect x="256" y="102.4" width="102.4" height="25.6"/>
	</g>
</g>
<g>
</g>
<g>
</g>
<g>
</g>
<g>
</g>
<g>
</g>
<g>
</g>
<g>
</g>
<g>
</g>
<g>
</g>
<g>
</g>
<g>
</g>
<g>
</g>
<g>
</g>
<g>
</g>
<g>
</g>
</svg>
